#Comment line ignore any data following # character 
#Hierarchical Translation and Rotation (.htr) file 
[Header]	
#Header keywords are followed by a single value 
FileType HTR		#Single word string
DataType HTRS		#Translation followed by rotation and scale data
FileVersion 1		#integer
NumSegments 64		#integer
NumFrames 3		#integer
DataFrameRate 30		#integer, data frame rate in this file
EulerRotationOrder ZYX
CalibrationUnits mm
RotationUnits Degrees
GlobalAxisofGravity Y
BoneLengthAxis Y
ScaleFactor 1.00
[SegmentNames&Hierarchy]
#CHILD	PARENT
Pinger_Root GLOBAL
Pelvis Pinger_Root
L_Hip Pelvis
R_Hip Pelvis
Rear_Leg01 Pelvis
Spine1 Pelvis
L_Leg01 L_Hip
L_Leg02 L_Leg01
L_Leg03 L_Leg02
L_Foot L_Leg03
L_Toe1_01 L_Foot
L_Toe2_01 L_Foot
L_Toe3_01 L_Foot
planeAlignerLeft L_Foot
L_Toe1_02 L_Toe1_01
L_Toe1_03 L_Toe1_02
L_Toe2_02 L_Toe2_01
L_Toe2_03 L_Toe2_02
L_Toe3_02 L_Toe3_01
L_Toe3_03 L_Toe3_02
planeLockWeightLeft planeAlignerLeft
R_Leg01 R_Hip
R_Leg02 R_Leg01
R_Leg03 R_Leg02
R_Foot R_Leg03
planeAlignerRight R_Foot
R_Toe1_01 R_Foot
R_Toe2_01 R_Foot
R_Toe3_01 R_Foot
planeLockWeightRight planeAlignerRight
R_Toe1_02 R_Toe1_01
R_Toe1_03 R_Toe1_02
R_Toe2_02 R_Toe2_01
R_Toe2_03 R_Toe2_02
R_Toe3_02 R_Toe3_01
R_Toe3_03 R_Toe3_02
Rear_Leg02 Rear_Leg01
Rear_Leg03 Rear_Leg02
Rear_Leg04 Rear_Leg03
Rear_Foot Rear_Leg04
planeAlignerCenter Rear_Foot
Rear_Toe1_01 Rear_Foot
Rear_Toe2_01 Rear_Foot
Rear_Toe3_01 Rear_Foot
planeLockWeightCenter planeAlignerCenter
Rear_Toe1_02 Rear_Toe1_01
Rear_Toe1_03 Rear_Toe1_02
Rear_Toe2_02 Rear_Toe2_01
Rear_Toe2_03 Rear_Toe2_02
Rear_Toe3_02 Rear_Toe3_01
Rear_Toe3_03 Rear_Toe3_02
Back_Bone Spine1
Head Spine1
Motor_Bone Back_Bone
Ping_Mechanism Back_Bone
BN_LookIK Head
bottomMouth Head
L_Mouth01 Head
L_mouthFront Head
mouthGun Head
R_Mouth01 Head
R_mouthFront Head
TopMouth Head
weapon_bone Head
[BasePosition]
#SegmentName Tx, Ty, Tz, Rx, Ry, Rz, BoneLength
Pinger_Root 0.000000 0.000000 0.000000 -90.000000 0.000000 0.000000 10.000000 
Pelvis 0.000000 0.000000 0.000000 0.000000 0.000000 0.000000 10.000000 
L_Hip 0.000000 0.000000 0.000000 0.000000 0.000000 0.000000 10.000000 
R_Hip 0.000000 0.000000 0.000000 0.000000 0.000000 0.000000 10.000000 
Rear_Leg01 0.000000 0.000000 0.000000 0.000000 0.000000 0.000000 10.000000 
Spine1 0.000000 0.000000 0.000000 0.000000 0.000000 0.000000 10.000000 
L_Leg01 0.000000 0.000000 0.000000 0.000000 0.000000 0.000000 10.000000 
L_Leg02 0.000000 0.000000 0.000000 0.000000 0.000000 0.000000 10.000000 
L_Leg03 0.000000 0.000000 0.000000 0.000000 0.000000 0.000000 10.000000 
L_Foot 0.000000 0.000000 0.000000 0.000000 0.000000 0.000000 10.000000 
L_Toe1_01 0.000000 0.000000 0.000000 0.000000 0.000000 0.000000 10.000000 
L_Toe2_01 0.000000 0.000000 0.000000 0.000000 0.000000 0.000000 10.000000 
L_Toe3_01 0.000000 0.000000 0.000000 0.000000 0.000000 0.000000 10.000000 
planeAlignerLeft 0.000000 0.000000 0.000000 0.000000 0.000000 0.000000 10.000000 
L_Toe1_02 0.000000 0.000000 0.000000 0.000000 0.000000 0.000000 10.000000 
L_Toe1_03 0.000000 0.000000 0.000000 0.000000 0.000000 0.000000 10.000000 
L_Toe2_02 0.000000 0.000000 0.000000 0.000000 0.000000 0.000000 10.000000 
L_Toe2_03 0.000000 0.000000 0.000000 0.000000 0.000000 0.000000 10.000000 
L_Toe3_02 0.000000 0.000000 0.000000 0.000000 0.000000 0.000000 10.000000 
L_Toe3_03 0.000000 0.000000 0.000000 0.000000 0.000000 0.000000 10.000000 
planeLockWeightLeft 0.000000 0.000000 0.000000 0.000000 0.000000 0.000000 10.000000 
R_Leg01 0.000000 0.000000 0.000000 0.000000 0.000000 0.000000 10.000000 
R_Leg02 0.000000 0.000000 0.000000 0.000000 0.000000 0.000000 10.000000 
R_Leg03 0.000000 0.000000 0.000000 0.000000 0.000000 0.000000 10.000000 
R_Foot 0.000000 0.000000 0.000000 0.000000 0.000000 0.000000 10.000000 
planeAlignerRight 0.000000 0.000000 0.000000 0.000000 0.000000 0.000000 10.000000 
R_Toe1_01 0.000000 0.000000 0.000000 0.000000 0.000000 0.000000 10.000000 
R_Toe2_01 0.000000 0.000000 0.000000 0.000000 0.000000 0.000000 10.000000 
R_Toe3_01 0.000000 0.000000 0.000000 0.000000 0.000000 0.000000 10.000000 
planeLockWeightRight 0.000000 0.000000 0.000000 0.000000 0.000000 0.000000 10.000000 
R_Toe1_02 0.000000 0.000000 0.000000 0.000000 0.000000 0.000000 10.000000 
R_Toe1_03 0.000000 0.000000 0.000000 0.000000 0.000000 0.000000 10.000000 
R_Toe2_02 0.000000 0.000000 0.000000 0.000000 0.000000 0.000000 10.000000 
R_Toe2_03 0.000000 0.000000 0.000000 0.000000 0.000000 0.000000 10.000000 
R_Toe3_02 0.000000 0.000000 0.000000 0.000000 0.000000 0.000000 10.000000 
R_Toe3_03 0.000000 0.000000 0.000000 0.000000 0.000000 0.000000 10.000000 
Rear_Leg02 0.000000 0.000000 0.000000 0.000000 0.000000 0.000000 10.000000 
Rear_Leg03 0.000000 0.000000 0.000000 0.000000 0.000000 0.000000 10.000000 
Rear_Leg04 0.000000 0.000000 0.000000 0.000000 0.000000 0.000000 10.000000 
Rear_Foot 0.000000 0.000000 0.000000 0.000000 0.000000 0.000000 10.000000 
planeAlignerCenter 0.000000 0.000000 0.000000 0.000000 0.000000 0.000000 10.000000 
Rear_Toe1_01 0.000000 0.000000 0.000000 0.000000 0.000000 0.000000 10.000000 
Rear_Toe2_01 0.000000 0.000000 0.000000 0.000000 0.000000 0.000000 10.000000 
Rear_Toe3_01 0.000000 0.000000 0.000000 0.000000 0.000000 0.000000 10.000000 
planeLockWeightCenter 0.000000 0.000000 0.000000 0.000000 0.000000 0.000000 10.000000 
Rear_Toe1_02 0.000000 0.000000 0.000000 0.000000 0.000000 0.000000 10.000000 
Rear_Toe1_03 0.000000 0.000000 0.000000 0.000000 0.000000 0.000000 10.000000 
Rear_Toe2_02 0.000000 0.000000 0.000000 0.000000 0.000000 0.000000 10.000000 
Rear_Toe2_03 0.000000 0.000000 0.000000 0.000000 0.000000 0.000000 10.000000 
Rear_Toe3_02 0.000000 0.000000 0.000000 0.000000 0.000000 0.000000 10.000000 
Rear_Toe3_03 0.000000 0.000000 0.000000 0.000000 0.000000 0.000000 10.000000 
Back_Bone 0.000000 0.000000 0.000000 0.000000 0.000000 0.000000 10.000000 
Head 0.000000 0.000000 0.000000 0.000000 0.000000 0.000000 10.000000 
Motor_Bone 0.000000 0.000000 0.000000 0.000000 0.000000 0.000000 10.000000 
Ping_Mechanism 0.000000 0.000000 0.000000 0.000000 0.000000 0.000000 10.000000 
BN_LookIK 0.000000 0.000000 0.000000 0.000000 0.000000 0.000000 10.000000 
bottomMouth 0.000000 0.000000 0.000000 0.000000 0.000000 0.000000 10.000000 
L_Mouth01 0.000000 0.000000 0.000000 0.000000 0.000000 0.000000 10.000000 
L_mouthFront 0.000000 0.000000 0.000000 0.000000 0.000000 0.000000 10.000000 
mouthGun 0.000000 0.000000 0.000000 0.000000 0.000000 0.000000 10.000000 
R_Mouth01 0.000000 0.000000 0.000000 0.000000 0.000000 0.000000 10.000000 
R_mouthFront 0.000000 0.000000 0.000000 0.000000 0.000000 0.000000 10.000000 
TopMouth 0.000000 0.000000 0.000000 0.000000 0.000000 0.000000 10.000000 
weapon_bone 0.000000 0.000000 0.000000 0.000000 0.000000 0.000000 10.000000 
#Beginning of Data. Separated by tabs
#Fr	Tx	Ty	Tz	Rx	Ry	Rz	SF
[Pinger_Root]
176 0.000000 -1254.018066 0.000000 -0.000075 -0.000000 -0.000020 1254.018066
177 0.000000 -1266.456543 0.000000 -0.000075 -0.000000 -0.000020 1266.456665
178 0.000000 -1278.895386 0.000000 -0.000075 -0.000000 -0.000020 1278.895386
[Pelvis]
176 1447.265747 15866.089844 5350.894531 -160.147491 -85.166084 147.067886 16806.529297
177 1438.457031 15770.970703 5338.792480 -132.625412 -83.329384 119.714996 16712.132813
178 1428.562988 15700.779297 5310.889160 -137.139267 -83.839859 124.253288 16636.128906
[L_Hip]
176 5.766392 125.831482 872.656799 -113.507629 -73.515785 5.769660 881.701050
177 5.766392 125.831482 872.656799 -110.179634 -74.924866 4.984372 881.701050
178 5.766392 125.831482 872.656799 -107.896461 -76.362183 5.638981 881.701050
[R_Hip]
176 5.765438 125.836372 -872.654907 -89.352211 47.904003 -1.473390 881.699829
177 5.765438 125.836372 -872.654907 -96.517570 53.954308 -8.343891 881.699829
178 5.765438 125.836372 -872.654907 -106.520332 60.489384 -18.838055 881.699829
[Rear_Leg01]
176 -192.298416 -925.602966 -0.001907 -176.858292 4.382831 -134.918793 945.367432
177 -192.298416 -925.602966 -0.001907 -176.373428 3.254469 -134.649551 945.367432
178 -192.298416 -925.602966 -0.001907 -175.829697 2.488248 -129.479126 945.367432
[Spine1]
176 290.604584 5.007505 0.000477 7.849038 0.519215 18.503317 290.647736
177 290.604584 5.007505 0.000477 7.568172 0.503544 15.917358 290.647736
178 290.604584 5.007505 0.000477 7.578238 0.398583 17.418579 290.647736
[L_Leg01]
176 761.932007 -0.002384 -0.069261 89.926506 -30.843290 -65.717072 761.932068
177 761.932007 -0.002384 -0.069261 86.697426 -39.382519 -61.192299 761.932068
178 761.932007 -0.002384 -0.069261 84.729576 -45.925507 -57.347958 761.932068
[L_Leg02]
176 1441.140503 -0.000954 -0.000715 13.068346 3.773415 -111.428093 1441.140503
177 1441.140503 -0.000954 -0.000715 13.864274 3.277360 -111.337021 1441.140503
178 1441.140503 -0.000954 -0.000715 14.765071 2.883267 -114.008881 1441.140503
[L_Leg03]
176 1686.963989 -0.000715 -0.000954 -0.106613 0.064032 139.058105 1686.963989
177 1686.963989 -0.000715 -0.000954 -0.095078 0.056206 136.624405 1686.963989
178 1686.963989 -0.000715 -0.000954 -0.089569 0.051894 134.637680 1686.963989
[L_Foot]
176 3041.570068 -30.715107 11.297464 -30.129328 35.474060 17.104458 3041.746094
177 3041.570068 -30.715107 11.297464 -31.009506 35.603386 15.651024 3041.746094
178 3041.570068 -30.715107 11.297464 -31.245554 35.292377 15.707481 3041.746094
[L_Toe1_01]
176 -188.216690 -224.732346 -21.137953 73.703018 -5.635441 -173.608917 293.899567
177 -188.216690 -224.732346 -21.137953 73.582527 -5.517593 -173.314087 293.899567
178 -188.216690 -224.732346 -21.137953 73.462708 -5.399145 -173.019562 293.899567
[L_Toe2_01]
176 200.746536 -219.926590 148.838394 -73.321236 -15.990217 -54.003548 332.896027
177 200.746536 -219.926590 148.838394 -73.241692 -16.009762 -54.049290 332.896027
178 200.746536 -219.926590 148.838394 -73.162132 -16.029236 -54.095047 332.896027
[L_Toe3_01]
176 188.832520 -219.859131 -191.078659 -124.650902 44.995785 -59.112324 347.140900
177 188.832520 -219.859131 -191.078659 -124.869522 45.301929 -59.242458 347.140900
178 188.832520 -219.859131 -191.078659 -124.992203 45.466057 -59.383518 347.140900
[planeAlignerLeft]
176 0.812531 -811.448792 -0.314951 0.000000 -90.000000 -90.001900 811.449280
177 0.812531 -811.448792 -0.314951 0.000000 -90.000000 -90.001900 811.449280
178 0.812531 -811.448792 -0.314951 0.000000 -90.000000 -90.001900 811.449280
[L_Toe1_02]
176 413.761139 0.000477 0.000000 0.001388 -25.436214 0.001388 413.761139
177 413.761139 0.000477 0.000000 0.001390 -25.255301 0.001390 413.761139
178 413.761139 0.000477 0.000000 0.001391 -25.074381 0.001391 413.761139
[L_Toe1_03]
176 464.317322 0.000358 -0.000089 0.003001 43.951260 0.003001 464.317322
177 464.317322 0.000358 -0.000089 0.002922 42.631699 0.002922 464.317322
178 464.317322 0.000358 -0.000089 0.002848 41.312160 0.002848 464.317322
[L_Toe2_02]
176 342.235809 -0.000477 0.000238 0.001182 -76.421280 0.001182 342.235809
177 342.235809 -0.000477 0.000238 0.001182 -76.537010 0.001182 342.235809
178 342.235809 -0.000477 0.000238 0.001182 -76.652756 0.001182 342.235809
[L_Toe2_03]
176 420.210846 -0.000715 0.000000 -179.993317 82.196823 -179.989807 420.210846
177 420.210846 -0.000715 0.000000 -179.993790 81.720757 -179.990280 420.210846
178 420.210846 -0.000715 0.000000 -179.994232 81.244827 -179.990723 420.210846
[L_Toe3_02]
176 329.270111 0.000954 0.000000 0.001176 -82.684471 0.001176 329.270111
177 329.270111 0.000954 0.000000 0.001176 -82.707230 0.001176 329.270111
178 329.270111 0.000954 0.000000 0.001176 -82.730080 0.001176 329.270111
[L_Toe3_03]
176 439.137451 -0.001907 0.000954 179.997131 68.043144 -179.997971 439.137451
177 439.137451 -0.001907 0.000954 179.995773 67.848686 -179.998886 439.137451
178 439.137451 -0.001907 0.000954 179.994431 67.654205 -179.999771 439.137451
[planeLockWeightLeft]
176 -0.000954 0.000238 -0.000305 -0.011826 -0.004376 0.005620 0.001029
177 -0.000954 0.000238 -0.000305 -0.011826 -0.004376 0.005620 0.001029
178 -0.000954 0.000238 -0.000305 -0.011826 -0.004376 0.005620 0.001029
[R_Leg01]
176 761.455627 -0.001907 -0.000358 84.760803 -39.665524 105.630249 761.455688
177 761.455627 -0.001907 -0.000358 83.300690 -46.562973 100.416954 761.455688
178 761.455627 -0.001907 -0.000358 79.476242 -50.144291 95.926193 761.455688
[R_Leg02]
176 1441.140625 0.000000 -0.000238 -3.709095 -1.087813 -109.931961 1441.140625
177 1441.140625 0.000000 -0.000238 -6.090814 -1.761507 -110.406044 1441.140625
178 1441.140625 0.000000 -0.000238 -8.783766 -2.423244 -110.311470 1441.140625
[R_Leg03]
176 1686.963989 0.000954 0.001431 0.104434 -0.063171 139.173904 1686.963989
177 1686.963989 0.000954 0.001431 0.104541 -0.062993 138.978485 1686.963989
178 1686.963989 0.000954 0.001431 0.104857 -0.062467 138.402618 1686.963989
[R_Foot]
176 3041.560059 -30.531288 -11.204481 32.960403 -31.993782 25.909090 3041.734131
177 3041.560059 -30.531288 -11.204481 31.620754 -31.660202 24.397688 3041.734131
178 3041.560059 -30.531288 -11.204481 30.120787 -30.989857 22.282484 3041.734131
[planeAlignerRight]
176 -0.635147 -812.270569 -0.364304 0.000000 -89.960434 -90.005180 812.270874
177 -0.635147 -812.270569 -0.364304 0.000000 -89.960434 -90.005180 812.270874
178 -0.635147 -812.270569 -0.364304 0.000000 -89.960434 -90.005180 812.270874
[R_Toe1_01]
176 -188.383347 -224.864899 21.052242 101.138466 -2.369718 -172.037674 294.101532
177 -188.383347 -224.864899 21.052242 101.650879 -2.453907 -171.919327 294.101532
178 -188.383347 -224.864899 21.052242 101.918846 -2.498393 -171.850082 294.101532
[R_Toe2_01]
176 200.637817 -220.002121 -148.787384 -125.246094 14.178775 -63.727638 332.857574
177 200.637817 -220.002121 -148.787384 -125.469978 13.594574 -63.813946 332.857574
178 200.637817 -220.002121 -148.787384 -125.594589 13.291581 -63.861832 332.857574
[R_Toe3_01]
176 188.606735 -220.092957 191.126343 -66.647369 -36.808121 -61.317936 347.192566
177 188.606735 -220.092957 191.126343 -66.750648 -37.508041 -61.165340 347.192566
178 188.606735 -220.092957 191.126343 -66.800987 -37.876495 -61.083282 347.192566
[planeLockWeightRight]
176 -0.000477 0.000000 0.000000 -0.011823 -0.004379 -0.000027 0.000477
177 -0.000477 0.000000 0.000000 -0.011823 -0.004379 -0.000027 0.000477
178 -0.000477 0.000000 0.000000 -0.011823 -0.004379 -0.000027 0.000477
[R_Toe1_02]
176 413.762085 0.000477 -0.000119 0.001385 -25.856052 0.001385 413.762085
177 413.762085 0.000477 -0.000119 0.001385 -25.827721 0.001385 413.762085
178 413.762085 0.000477 -0.000119 0.001385 -25.799391 0.001385 413.762085
[R_Toe1_03]
176 464.317810 0.000000 0.001088 0.003233 47.425819 0.003233 464.317810
177 464.317810 0.000000 0.001088 0.003195 46.893810 0.003195 464.317810
178 464.317810 0.000000 0.001088 0.003177 46.646194 0.003177 464.317810
[R_Toe2_02]
176 342.234741 -0.000954 0.000238 -0.002342 -75.286827 -0.002342 342.234741
177 342.234741 -0.000954 0.000238 -0.002342 -75.340347 -0.002342 342.234741
178 342.234741 -0.000954 0.000238 -0.002342 -75.393867 -0.002342 342.234741
[R_Toe2_03]
176 420.210846 0.000715 -0.000268 -179.982895 85.712387 -179.986389 420.210846
177 420.210846 0.000715 -0.000268 -179.983124 85.647736 -179.986618 420.210846
178 420.210846 0.000715 -0.000268 -179.983337 85.583145 -179.986832 420.210846
[R_Toe3_02]
176 329.270355 -0.000477 -0.000954 0.001176 -82.666039 0.001176 329.270355
177 329.270355 -0.000477 -0.000954 0.001176 -82.663452 0.001176 329.270355
178 329.270355 -0.000477 -0.000954 0.001176 -82.660965 0.001176 329.270355
[R_Toe3_03]
176 439.137939 0.000238 0.001431 -179.998764 68.048355 -179.995193 439.137939
177 439.137939 0.000238 0.001431 -179.998779 67.909523 -179.995224 439.137939
178 439.137939 0.000238 0.001431 -179.998795 67.892403 -179.995224 439.137939
[Rear_Leg02]
176 1162.777710 -0.029802 0.005960 2.278795 -6.230899 -117.236549 1162.777710
177 1162.777710 -0.029802 0.005960 3.465310 -5.218662 -117.694763 1162.777710
178 1162.777710 -0.029802 0.005960 4.465234 -4.204500 -117.229340 1162.777710
[Rear_Leg03]
176 607.192505 -0.013351 -0.073195 0.006505 -0.002018 62.682102 607.192505
177 607.192505 -0.013351 -0.073195 0.010632 -0.004807 65.012848 607.192505
178 607.192505 -0.013351 -0.073195 0.010547 -0.004991 67.006058 607.192505
[Rear_Leg04]
176 995.874512 -0.020504 -0.011921 -0.040083 -0.016274 55.077148 995.874573
177 995.874512 -0.020504 -0.011921 -0.040700 -0.014667 59.637833 995.874573
178 995.874512 -0.020504 -0.011921 -0.043811 -0.017392 63.762569 995.874573
[Rear_Foot]
176 3096.176270 -0.067472 -0.041425 -56.483414 85.368614 161.264297 3096.176270
177 3096.176270 -0.067472 -0.041425 -50.951885 85.108353 163.834610 3096.176270
178 3096.176270 -0.067472 -0.041425 -43.142120 84.663513 169.525360 3096.176270
[planeAlignerCenter]
176 0.350077 0.966311 -838.790894 0.000009 0.000003 -179.999985 838.791565
177 0.350077 0.966311 -838.790894 0.000009 0.000003 -179.999985 838.791565
178 0.350077 0.966311 -838.790894 0.000009 0.000003 -179.999985 838.791565
[Rear_Toe1_01]
176 0.653352 83.966492 -371.173737 0.705672 32.385700 91.054665 380.553192
177 0.653352 83.966492 -371.173737 0.722224 33.669205 91.062500 380.553192
178 0.653352 83.966492 -371.173737 0.720804 33.428020 91.066742 380.553192
[Rear_Toe2_01]
176 178.200760 -294.826019 -362.060547 -8.122121 24.395411 -69.819557 499.765686
177 178.200760 -294.826019 -362.060547 -8.057940 24.640242 -69.825912 499.765686
178 178.200760 -294.826019 -362.060547 -8.079688 24.392591 -69.837929 499.765686
[Rear_Toe3_01]
176 -153.359680 -308.780914 -362.060852 3.753924 21.037279 -110.233986 499.952881
177 -153.359680 -308.780914 -362.060852 3.728571 21.008741 -110.201118 499.952881
178 -153.359680 -308.780914 -362.060852 3.735442 20.813654 -110.195839 499.952881
[planeLockWeightCenter]
176 -0.000062 0.000238 0.000000 -0.011814 -0.004373 -0.000015 0.000246
177 -0.000062 0.000238 0.000000 -0.011814 -0.004373 -0.000015 0.000246
178 -0.000062 0.000238 0.000000 -0.011814 -0.004373 -0.000015 0.000246
[Rear_Toe1_02]
176 379.707825 0.194073 0.000477 -0.002647 -32.701149 -0.002647 379.707855
177 379.707825 0.194073 0.000477 -0.002646 -32.819645 -0.002646 379.707855
178 379.707825 0.194073 0.000477 -0.002646 -32.761490 -0.002646 379.707855
[Rear_Toe1_03]
176 500.129700 0.165701 0.000119 -179.892517 89.376305 -179.896011 500.129761
177 500.129700 0.165701 0.000119 0.000000 89.528946 -0.003501 500.129761
178 500.129700 0.165701 0.000119 0.000000 89.972023 -0.003497 500.129761
[Rear_Toe2_02]
176 340.494507 0.000238 -0.000954 0.001261 -47.197227 0.001261 340.494507
177 340.494507 0.000238 -0.000954 0.001269 -45.342175 0.001269 340.494507
178 340.494507 0.000238 -0.000954 0.001270 -45.170849 0.001270 340.494507
[Rear_Toe2_03]
176 433.103577 0.000000 0.000238 -0.003313 41.306049 0.000525 433.103546
177 433.103577 0.000000 0.000238 -0.003278 39.362343 0.000590 433.103546
178 433.103577 0.000000 0.000238 -0.003275 39.189152 0.000596 433.103546
[Rear_Toe3_02]
176 340.494141 -0.000358 -0.000477 -0.002579 -38.414177 -0.002581 340.494171
177 340.494141 -0.000358 -0.000477 0.003208 -36.050594 -0.004499 340.494171
178 340.494141 -0.000358 -0.000477 -0.002609 -35.806374 -0.002609 340.494171
[Rear_Toe3_03]
176 433.103577 0.001431 -0.000238 0.000803 32.425732 -0.003188 433.103546
177 433.103577 0.001431 -0.000238 0.006387 30.150995 -0.001682 433.103546
178 433.103577 0.001431 -0.000238 0.006384 29.925821 -0.001695 433.103546
[Back_Bone]
176 1312.175781 -701.934692 0.000954 1.110620 -0.546904 -73.205215 1488.125488
177 1312.175781 -701.934692 0.000954 1.165163 -0.486190 -74.336716 1488.125488
178 1312.175781 -701.934692 0.000954 1.232937 -0.409673 -75.695740 1488.125488
[Head]
176 1406.159424 809.709290 0.001431 -4.254968 2.745910 9.922034 1622.625488
177 1406.159424 809.709290 0.001431 -4.005833 2.707922 8.676707 1622.625488
178 1406.159424 809.709290 0.001431 -3.659662 2.652220 6.919388 1622.625488
[Motor_Bone]
176 1158.364380 -417.834747 0.000477 -0.095143 0.076781 -109.913040 1231.419434
177 1158.364380 -417.834747 0.000477 -0.095325 0.076551 -110.187729 1231.419434
178 1158.364380 -417.834747 0.000477 -0.095431 0.076420 -110.345734 1231.419434
[Ping_Mechanism]
176 1237.859985 -450.121826 -6.305038 0.000103 -0.000053 82.120995 1317.173706
177 1251.818115 -458.650574 -4.070883 0.000103 -0.000053 82.120995 1333.201172
178 1248.936035 -456.473297 -4.476210 0.000103 -0.000053 82.120995 1329.747803
[BN_LookIK]
176 193.241119 1380.371704 -0.002861 0.000000 89.965736 -31.038179 1393.832153
177 193.241119 1380.371704 -0.002861 0.000000 89.965736 -31.038179 1393.832153
178 193.241119 1380.371704 -0.002861 0.000000 89.965736 -31.038179 1393.832153
[bottomMouth]
176 -435.092926 615.759399 -0.000954 -0.000022 0.000016 73.527184 753.966492
177 -435.092926 615.759399 -0.000954 -0.000022 0.000016 73.527184 753.966492
178 -435.092926 615.759399 -0.000954 -0.000022 0.000016 73.527184 753.966492
[L_Mouth01]
176 554.440979 7.658243 838.222046 150.204178 23.759130 109.605339 1005.027161
177 554.440979 7.658243 838.222046 150.204178 23.759130 109.605339 1005.027161
178 554.440979 7.658243 838.222046 150.204178 23.759130 109.605339 1005.027161
[L_mouthFront]
176 551.629089 934.514771 339.150421 0.000081 2.804060 79.119301 1136.941284
177 551.629089 934.514771 339.150421 0.000081 2.804060 79.119301 1136.941284
178 551.629089 934.514771 339.150421 0.000081 2.804060 79.119301 1136.941284
[mouthGun]
176 55.332661 1627.420898 0.000000 0.000023 0.000009 -11.038128 1628.361328
177 55.332661 1627.420898 0.000000 0.000023 0.000009 -11.038128 1628.361328
178 55.332661 1627.420898 0.000000 0.000023 0.000009 -11.038128 1628.361328
[R_Mouth01]
176 554.442383 7.659197 -838.223938 29.795891 -23.759109 109.605331 1005.029541
177 554.442383 7.659197 -838.223938 29.795891 -23.759109 109.605331 1005.029541
178 554.442383 7.659197 -838.223938 29.795891 -23.759109 109.605331 1005.029541
[R_mouthFront]
176 551.629089 934.514282 -339.151367 0.000029 -2.803930 79.119133 1136.941162
177 551.629089 934.514282 -339.151367 0.000029 -2.803930 79.119133 1136.941162
178 551.629089 934.514282 -339.151367 0.000029 -2.803930 79.119133 1136.941162
[TopMouth]
176 461.269867 -56.106091 -0.008583 -0.000059 -0.000268 92.025169 464.669525
177 461.269867 -56.106091 -0.008583 -0.000059 -0.000268 92.025169 464.669525
178 461.269867 -56.106091 -0.008583 -0.000059 -0.000268 92.025169 464.669525
[weapon_bone]
176 -987.239868 1448.372803 0.001431 0.000000 89.965736 -31.038221 1752.833740
177 -987.239868 1448.372803 0.001431 0.000000 89.965736 -31.038221 1752.833740
178 -987.239868 1448.372803 0.001431 0.000000 89.965736 -31.038221 1752.833740
